<svg width="24" height="24" viewBox="0 0 24 24" fill="none" xmlns="http://www.w3.org/2000/svg">
<path d="M8.00317 24C9.06404 24 10.0815 23.5786 10.8316 22.8284C11.5817 22.0783 12.0032 21.0609 12.0032 20V16H8.00317C6.94231 16 5.92489 16.4214 5.17475 17.1716C4.4246 17.9217 4.00317 18.9391 4.00317 20C4.00317 21.0609 4.4246 22.0783 5.17475 22.8284C5.92489 23.5786 6.94231 24 8.00317 24Z" fill="white"/>
<path d="M4.00317 12C4.00317 10.9391 4.4246 9.92172 5.17475 9.17157C5.92489 8.42143 6.94231 8 8.00317 8H12.0032V16H8.00317C6.94231 16 5.92489 15.5786 5.17475 14.8284C4.4246 14.0783 4.00317 13.0609 4.00317 12Z" fill="white"/>
<path d="M4.00317 4C4.00317 2.93968 4.42417 1.92273 5.17364 1.17268C5.92311 0.422621 6.93972 0.000828379 8.00005 0L12 0V8H8.00317C6.94231 8 5.92489 7.57857 5.17475 6.82843C4.4246 6.07828 4.00317 5.06087 4.00317 4Z" fill="white"/>
<path d="M12.0032 0H16.0032C17.064 0 18.0815 0.421427 18.8316 1.17157C19.5817 1.92172 20.0032 2.93913 20.0032 4C20.0032 5.06087 19.5817 6.07828 18.8316 6.82843C18.0815 7.57857 17.064 8 16.0032 8H12.0032V0Z" fill="white"/>
<path d="M20.0032 12C20.0032 13.0609 19.5817 14.0783 18.8316 14.8284C18.0815 15.5786 17.064 16 16.0032 16C14.9423 16 13.9249 15.5786 13.1747 14.8284C12.4246 14.0783 12.0032 13.0609 12.0032 12C12.0032 10.9391 12.4246 9.92172 13.1747 9.17157C13.9249 8.42143 14.9423 8 16.0032 8C17.064 8 18.0815 8.42143 18.8316 9.17157C19.5817 9.92172 20.0032 10.9391 20.0032 12Z" fill="white"/>
</svg>
