<svg width="32" height="32" viewBox="0 0 32 32" fill="none" xmlns="http://www.w3.org/2000/svg">
<path d="M16.5801 19.1069L3.8901 11.0312C3.23405 10.5973 2.77462 9.92316 2.61076 9.15388C2.4469 8.3846 2.5917 7.58174 3.01399 6.91818C3.43629 6.25462 4.10228 5.78344 4.86857 5.60611C5.63486 5.42878 6.44014 5.55949 7.111 5.97008L16.421 11.8944L24.7801 6.04288C25.4323 5.60094 26.2321 5.43327 27.0069 5.57609C27.7816 5.71891 28.4691 6.16075 28.9209 6.80618C29.3726 7.45162 29.5523 8.24884 29.4212 9.02567C29.2901 9.80249 28.8586 10.4966 28.2201 10.958L16.5801 19.1069Z" fill="white"/>
<path d="M27.5 26.5005H23.5V8.50049C23.5 7.70484 23.8161 6.94178 24.3787 6.37917C24.9413 5.81656 25.7044 5.50049 26.5 5.50049C27.2956 5.50049 28.0587 5.81656 28.6213 6.37917C29.1839 6.94178 29.5 7.70484 29.5 8.50049L29.5 24.5005C29.5 25.0309 29.2893 25.5396 28.9142 25.9147C28.5391 26.2898 28.0304 26.5005 27.5 26.5005Z" fill="white"/>
<path d="M29.4561 8.06545C29.4473 8.00545 29.448 7.94415 29.4355 7.88425C29.4163 7.79245 29.3806 7.70765 29.3532 7.61905C29.3267 7.51764 29.2947 7.41773 29.2574 7.31975C29.2374 7.27225 29.2066 7.23055 29.1839 7.18435C29.1217 7.05105 29.0497 6.92253 28.9685 6.79985C28.9285 6.74175 28.8785 6.69225 28.8343 6.63725C28.7585 6.53729 28.6765 6.44214 28.5888 6.35235C28.5223 6.28765 28.4465 6.23355 28.3742 6.17525C28.2974 6.10937 28.2173 6.04739 28.1342 5.98955C28.0549 5.93775 27.9681 5.89785 27.8842 5.85365C27.7958 5.80755 27.7092 5.75735 27.6172 5.72055C27.5283 5.68475 27.4335 5.66195 27.3406 5.63465C27.2477 5.60735 27.1553 5.57465 27.0599 5.55695C26.9417 5.53796 26.8225 5.52594 26.7029 5.52095C26.627 5.51565 26.5518 5.50235 26.4756 5.50295C26.3342 5.50707 26.1932 5.52127 26.0537 5.54545C25.9974 5.55385 25.9407 5.55315 25.8848 5.56475C25.6961 5.6224 25.508 5.68174 25.3203 5.74275C25.2688 5.76475 25.2237 5.79745 25.1738 5.82225C24.666 6.05921 24.2377 6.43817 23.9406 6.91334C23.6436 7.38851 23.4905 7.93955 23.4999 8.49985V14.2618L28.2199 10.9575C28.6834 10.6465 29.0468 10.2077 29.2662 9.69442C29.4855 9.18111 29.5517 8.61542 29.4561 8.06545Z" fill="white"/>
<path d="M5.5 5.5C6.29565 5.5 7.05871 5.81607 7.62132 6.37868C8.18393 6.94129 8.5 7.70435 8.5 8.5V26.5H4.5C3.96957 26.5 3.46086 26.2893 3.08579 25.9142C2.71071 25.5391 2.5 25.0304 2.5 24.5V8.5C2.5 7.70435 2.81607 6.94129 3.37868 6.37868C3.94129 5.81607 4.70435 5.5 5.5 5.5Z" fill="white"/>
<path d="M2.54397 8.06566C2.55277 8.00566 2.55207 7.94436 2.56457 7.88446C2.58377 7.79266 2.61947 7.70786 2.64687 7.61926C2.67343 7.51789 2.70541 7.41801 2.74266 7.32006C2.76266 7.27256 2.79347 7.23086 2.81627 7.18466C2.87845 7.05131 2.95044 6.92275 3.03167 6.80006C3.07167 6.74196 3.12167 6.69246 3.16587 6.63746C3.24168 6.5375 3.32364 6.44235 3.41127 6.35256C3.47777 6.28786 3.55357 6.23376 3.62596 6.17546C3.70278 6.10955 3.78288 6.04757 3.86597 5.98976C3.94527 5.93796 4.03207 5.89806 4.11597 5.85386C4.20267 5.80482 4.29178 5.76016 4.38297 5.72006C4.47197 5.68426 4.56677 5.66146 4.65957 5.63416C4.75237 5.60686 4.84486 5.57416 4.94026 5.55646C5.05846 5.53748 5.17766 5.52546 5.29727 5.52046C5.37327 5.51516 5.44836 5.50186 5.52456 5.50246C5.66603 5.50658 5.80702 5.52078 5.94647 5.54496C6.00277 5.55336 6.05946 5.55266 6.11546 5.56426C6.21226 5.58893 6.30772 5.61856 6.40147 5.65306C6.49573 5.67812 6.58868 5.70789 6.67997 5.74226C6.73137 5.76426 6.77646 5.79696 6.82646 5.82176C6.95609 5.88266 7.08115 5.95284 7.20066 6.03176C7.6013 6.30685 7.92896 6.67532 8.15534 7.10536C8.38173 7.5354 8.50004 8.01407 8.50006 8.50006V14.2621L3.78006 10.958C3.31664 10.6468 2.95328 10.2081 2.73392 9.69477C2.51455 9.18149 2.44857 8.61565 2.54397 8.06566Z" fill="white"/>
</svg>
