<svg width="32" height="32" viewBox="0 0 32 32" fill="none" xmlns="http://www.w3.org/2000/svg">
<g clip-path="url(#clip0_5_1252)">
<path d="M31.275 15.1125C31.2375 19.075 30.2187 22.175 28.1 24.8687C25.825 27.7625 22.8625 29.6 19.2375 30.3437C16.4375 30.9125 13.7125 30.6625 11.0375 29.6937C10.4437 29.475 9.86246 29.2187 9.30621 28.9125C9.13746 28.8187 8.99371 28.8062 8.80621 28.8687C6.27496 29.6875 3.73746 30.5 1.19996 31.3062C1.08746 31.3437 0.937464 31.45 0.849964 31.3687C0.749964 31.2687 0.874964 31.1187 0.912464 31C1.41871 29.4937 1.92496 27.9812 2.43746 26.475C2.74996 25.5562 3.04996 24.6437 3.37496 23.7312C3.46246 23.4937 3.43121 23.3125 3.29996 23.0937C2.65621 21.9937 2.18121 20.8187 1.84371 19.5875C1.21246 17.275 1.14371 14.9375 1.63746 12.6C2.17496 10.05 3.29996 7.77497 5.03121 5.81247C7.12496 3.43747 9.70621 1.86872 12.775 1.11247C14.7312 0.631224 16.7062 0.556224 18.6937 0.881224C21.2937 1.30622 23.6375 2.33747 25.6812 3.99997C27.8062 5.73122 29.3562 7.88122 30.3312 10.4625C30.8687 11.8562 31.2937 14.1375 31.275 15.1125ZM4.66246 27.5937C6.21246 27.0937 7.69371 26.6187 9.16246 26.1375C9.35621 26.075 9.51246 26.0875 9.68121 26.2C10.2437 26.575 10.85 26.875 11.475 27.1375C13.5062 28 15.6187 28.3125 17.8 28.0312C20.475 27.6875 22.825 26.6125 24.8 24.7437C27.2875 22.3875 28.6187 19.5 28.7375 16.0875C28.85 12.7437 27.775 9.80622 25.5312 7.31247C23.4 4.94372 20.725 3.59372 17.5687 3.25622C14.825 2.96247 12.2562 3.55622 9.88121 4.98122C7.84996 6.20622 6.29371 7.87497 5.21246 9.98122C4.01871 12.3 3.61246 14.7625 3.95621 17.3437C4.21246 19.2937 4.91246 21.0875 6.03746 22.7C6.16246 22.8812 6.19996 23.0312 6.12496 23.2437C5.89371 23.8812 5.68746 24.525 5.46871 25.1625C5.20621 25.95 4.94996 26.7375 4.66246 27.5937Z" fill="white"/>
<path d="M8.81244 12.1689C8.84369 10.6814 9.36869 9.57512 10.3624 8.69387C10.6812 8.40637 11.0749 8.28137 11.5187 8.34387C11.7062 8.36887 11.8937 8.38762 12.0812 8.37512C12.4312 8.35637 12.6687 8.52512 12.7874 8.83137C13.2062 9.91887 13.6124 11.0064 14.0187 12.1001C14.1562 12.4751 13.9187 12.7689 13.7187 13.0376C13.4874 13.3564 13.2062 13.6376 12.9312 13.9189C12.6499 14.2064 12.6124 14.3689 12.8062 14.7189C13.9374 16.7751 15.5249 18.3564 17.6812 19.3314C17.7562 19.3626 17.8312 19.4064 17.9062 19.4439C18.1937 19.5751 18.4499 19.5439 18.6687 19.2939C19.0687 18.8251 19.5062 18.3939 19.8749 17.9001C20.1187 17.5751 20.2874 17.5189 20.6562 17.6814C21.7562 18.1564 22.7874 18.7564 23.8374 19.3376C24.0312 19.4439 24.0999 19.6064 24.0937 19.8314C24.0374 21.6751 22.9812 22.6376 21.1249 23.0626C20.2249 23.2689 19.3937 23.0439 18.5687 22.7439C16.8374 22.1189 15.1687 21.3814 13.7687 20.1439C12.6562 19.1564 11.6749 18.0564 10.8437 16.8251C10.2062 15.8751 9.54369 14.9439 9.17494 13.8376C8.96244 13.2501 8.80619 12.6501 8.81244 12.1689Z" fill="white"/>
</g>
<defs>
<clipPath id="clip0_5_1252">
<rect width="32" height="32" fill="white"/>
</clipPath>
</defs>
</svg>
